#define raspberrypi_small_width 95
#define raspberrypi_small_height 74
static unsigned char raspberrypi_small_bits[] = {
   0x00, 0x00, 0x00, 0x00, 0x00, 0x00, 0x00, 0x00, 0x00, 0x00, 0x00, 0x00,
   0x00, 0x00, 0x00, 0x00, 0x00, 0x00, 0x00, 0x00, 0x00, 0x00, 0x00, 0x00,
   0x00, 0x00, 0x00, 0x00, 0x00, 0x00, 0x00, 0x00, 0x00, 0x00, 0x00, 0x00,
   0x00, 0x00, 0x00, 0x00, 0x00, 0x00, 0x00, 0x00, 0x00, 0x00, 0x00, 0x00,
   0x00, 0x00, 0x00, 0x00, 0x00, 0x00, 0x00, 0x00, 0x00, 0x00, 0x00, 0x00,
   0x00, 0x00, 0x00, 0x00, 0x7f, 0x00, 0x80, 0x3f, 0x00, 0x00, 0x00, 0x00,
   0x00, 0x00, 0x00, 0xf8, 0xff, 0x03, 0xf0, 0xff, 0x07, 0x00, 0x00, 0x00,
   0x00, 0x00, 0x00, 0x7e, 0xab, 0x0f, 0x7c, 0xa5, 0x1f, 0x00, 0x00, 0x00,
   0x00, 0x00, 0x00, 0x0f, 0x00, 0x1e, 0x1e, 0x00, 0x3c, 0x00, 0x00, 0x00,
   0x00, 0x00, 0x00, 0x03, 0x00, 0x38, 0x07, 0x00, 0x30, 0x00, 0x00, 0x00,
   0x00, 0x00, 0x00, 0x07, 0x00, 0x30, 0x03, 0x00, 0x30, 0x00, 0x00, 0x00,
   0x00, 0x00, 0x00, 0x03, 0x01, 0xe0, 0x01, 0x00, 0x30, 0x00, 0x00, 0x00,
   0x00, 0x00, 0x00, 0x07, 0x04, 0xe0, 0x01, 0x08, 0x30, 0x00, 0x00, 0x00,
   0x00, 0x00, 0x00, 0x03, 0x18, 0xc0, 0x01, 0x06, 0x30, 0x00, 0x00, 0x00,
   0x00, 0x00, 0x00, 0x06, 0x60, 0xc0, 0x81, 0x01, 0x18, 0x00, 0x00, 0x00,
   0x00, 0x00, 0x00, 0x0e, 0x80, 0xc1, 0xc1, 0x00, 0x1c, 0x00, 0x00, 0x00,
   0x00, 0x00, 0x00, 0x0e, 0x00, 0xe3, 0x31, 0x00, 0x1c, 0x00, 0x00, 0x00,
   0x00, 0x00, 0x00, 0x1c, 0x00, 0xf6, 0x1b, 0x00, 0x0e, 0x00, 0x00, 0x00,
   0x00, 0x00, 0x00, 0x18, 0x00, 0xfc, 0x0f, 0x00, 0x06, 0x00, 0x00, 0x00,
   0x00, 0x00, 0x00, 0x30, 0x00, 0xfc, 0x0f, 0x00, 0x03, 0x00, 0x00, 0x00,
   0x00, 0x00, 0x00, 0x70, 0x00, 0xfc, 0x1f, 0x80, 0x03, 0x00, 0x00, 0x00,
   0x00, 0x00, 0x00, 0xc0, 0x00, 0xff, 0x3f, 0xc0, 0x00, 0x00, 0x00, 0x00,
   0x00, 0x00, 0x00, 0xc0, 0xc7, 0xff, 0xff, 0xf8, 0x00, 0x00, 0x00, 0x00,
   0x00, 0x00, 0x00, 0x00, 0xff, 0x0f, 0xfc, 0x3f, 0x00, 0x00, 0x00, 0x00,
   0x00, 0x00, 0x00, 0xc0, 0x87, 0x03, 0xf0, 0xfc, 0x00, 0x00, 0x00, 0x00,
   0x00, 0x00, 0x00, 0xe0, 0x81, 0x01, 0x60, 0xe0, 0x01, 0x00, 0x00, 0x00,
   0x00, 0x00, 0x00, 0x70, 0xc0, 0x00, 0xc0, 0x80, 0x03, 0x00, 0x00, 0x00,
   0x00, 0x00, 0x00, 0x30, 0xe0, 0x01, 0xc0, 0x01, 0x03, 0x00, 0x00, 0x00,
   0x00, 0x00, 0x00, 0x38, 0xf0, 0x01, 0xe0, 0x03, 0x07, 0x00, 0x00, 0x00,
   0x00, 0x00, 0x00, 0x18, 0xf8, 0x03, 0xf0, 0x07, 0x06, 0x00, 0x00, 0x00,
   0x00, 0x00, 0x00, 0x18, 0xfc, 0x3f, 0xfe, 0x0f, 0x06, 0x00, 0x00, 0x00,
   0x00, 0x00, 0x00, 0x1c, 0x3f, 0xfc, 0x0f, 0x3e, 0x0e, 0x00, 0x00, 0x00,
   0x00, 0x00, 0x00, 0x9c, 0x0f, 0xf8, 0x03, 0x78, 0x0e, 0x00, 0x00, 0x00,
   0x00, 0x00, 0x00, 0xfc, 0x03, 0xe0, 0x03, 0xf0, 0x0f, 0x00, 0x00, 0x00,
   0x00, 0x00, 0x00, 0xfe, 0x03, 0xe0, 0x01, 0xe0, 0x1f, 0x00, 0x00, 0x00,
   0x00, 0x00, 0x00, 0xef, 0x01, 0xe0, 0x01, 0xc0, 0x39, 0x00, 0x00, 0x00,
   0x00, 0x00, 0x80, 0xe3, 0x00, 0xc0, 0x01, 0xc0, 0x71, 0x00, 0x00, 0x00,
   0x00, 0x00, 0x80, 0xe1, 0x00, 0xc0, 0x01, 0xc0, 0x61, 0x00, 0x00, 0x00,
   0x00, 0x00, 0xc0, 0xc1, 0x00, 0xc0, 0x01, 0x80, 0xe1, 0x00, 0x00, 0x00,
   0x00, 0x00, 0xc0, 0xe0, 0x00, 0xe0, 0x01, 0x80, 0xc1, 0x00, 0x00, 0x00,
   0x00, 0x00, 0xc0, 0xe0, 0x00, 0xe0, 0x01, 0x80, 0xc1, 0x00, 0x00, 0x00,
   0x00, 0x00, 0xe0, 0xe0, 0x00, 0xe0, 0x03, 0xc0, 0xc1, 0x00, 0x00, 0x00,
   0x00, 0x00, 0xe0, 0xe0, 0x00, 0xf0, 0x07, 0xc0, 0xc1, 0x01, 0x00, 0x00,
   0x00, 0x00, 0xc0, 0xe0, 0x01, 0xf8, 0x0f, 0xe0, 0xc1, 0x00, 0x00, 0x00,
   0x00, 0x00, 0xc0, 0xe0, 0x03, 0xfc, 0x1f, 0xf0, 0xc1, 0x00, 0x00, 0x00,
   0x00, 0x00, 0xc0, 0xf1, 0x0f, 0x07, 0xf8, 0xff, 0xe3, 0x00, 0x00, 0x00,
   0x00, 0x00, 0x80, 0xf1, 0xff, 0x03, 0xf0, 0xff, 0x63, 0x00, 0x00, 0x00,
   0x00, 0x00, 0x80, 0xfb, 0xff, 0x01, 0xe0, 0x3f, 0x7e, 0x00, 0x00, 0x00,
   0x00, 0x00, 0x00, 0x1f, 0xff, 0x00, 0xc0, 0x0f, 0x3c, 0x00, 0x00, 0x00,
   0x00, 0x00, 0x00, 0x0f, 0xfc, 0x00, 0xc0, 0x07, 0x3c, 0x00, 0x00, 0x00,
   0x00, 0x00, 0x00, 0x0e, 0xf8, 0x00, 0x80, 0x03, 0x1c, 0x00, 0x00, 0x00,
   0x00, 0x00, 0x00, 0x0e, 0xf0, 0x00, 0x80, 0x01, 0x1c, 0x00, 0x00, 0x00,
   0x00, 0x00, 0x00, 0x0e, 0xe0, 0x00, 0xc0, 0x01, 0x1c, 0x00, 0x00, 0x00,
   0x00, 0x00, 0x00, 0x0c, 0xc0, 0x00, 0xc0, 0x00, 0x0c, 0x00, 0x00, 0x00,
   0x00, 0x00, 0x00, 0x0c, 0xc0, 0x01, 0xc0, 0x00, 0x0c, 0x00, 0x00, 0x00,
   0x00, 0x00, 0x00, 0x1c, 0xc0, 0x01, 0x60, 0x00, 0x0c, 0x00, 0x00, 0x00,
   0x00, 0x00, 0x00, 0x18, 0x80, 0x07, 0x70, 0x00, 0x06, 0x00, 0x00, 0x00,
   0x00, 0x00, 0x00, 0x38, 0x80, 0x0f, 0x7c, 0x00, 0x07, 0x00, 0x00, 0x00,
   0x00, 0x00, 0x00, 0x70, 0xc0, 0xff, 0x7f, 0x80, 0x03, 0x00, 0x00, 0x00,
   0x00, 0x00, 0x00, 0xe0, 0xc1, 0xff, 0xff, 0xe0, 0x01, 0x00, 0x00, 0x00,
   0x00, 0x00, 0x00, 0xc0, 0xff, 0x07, 0xf8, 0xff, 0x00, 0x00, 0x00, 0x00,
   0x00, 0x00, 0x00, 0x00, 0xff, 0x01, 0xc0, 0x3f, 0x00, 0x00, 0x00, 0x00,
   0x00, 0x00, 0x00, 0x00, 0xfc, 0x00, 0xc0, 0x0f, 0x00, 0x00, 0x00, 0x00,
   0x00, 0x00, 0x00, 0x00, 0xf8, 0x00, 0xc0, 0x07, 0x00, 0x00, 0x00, 0x00,
   0x00, 0x00, 0x00, 0x00, 0xe0, 0x01, 0xe0, 0x01, 0x00, 0x00, 0x00, 0x00,
   0x00, 0x00, 0x00, 0x00, 0x80, 0x07, 0x70, 0x00, 0x00, 0x00, 0x00, 0x00,
   0x00, 0x00, 0x00, 0x00, 0x00, 0x1f, 0x3e, 0x00, 0x00, 0x00, 0x00, 0x00,
   0x00, 0x00, 0x00, 0x00, 0x00, 0xfc, 0x0f, 0x00, 0x00, 0x00, 0x00, 0x00,
   0x00, 0x00, 0x00, 0x00, 0x00, 0xf0, 0x03, 0x00, 0x00, 0x00, 0x00, 0x00,
   0x00, 0x00, 0x00, 0x00, 0x00, 0x00, 0x00, 0x00, 0x00, 0x00, 0x00, 0x00,
   0x00, 0x00, 0x00, 0x00, 0x00, 0x00, 0x00, 0x00, 0x00, 0x00, 0x00, 0x00,
   0x00, 0x00, 0x00, 0x00, 0x00, 0x00, 0x00, 0x00, 0x00, 0x00, 0x00, 0x00,
   0x00, 0x00, 0x00, 0x00, 0x00, 0x00, 0x00, 0x00, 0x00, 0x00, 0x00, 0x00,
   0x00, 0x00, 0x00, 0x00, 0x00, 0x00, 0x00, 0x00, 0x00, 0x00, 0x00, 0x00 };
